<?xml version="1.0" encoding="utf-8"?>
<!-- Generator: Adobe Illustrator 24.3.0, SVG Export Plug-In . SVG Version: 6.00 Build 0)  -->
<svg version="1.1" id="Warstwa_1" xmlns="http://www.w3.org/2000/svg" xmlns:xlink="http://www.w3.org/1999/xlink" x="0px" y="0px"
	 viewBox="0 0 1226.5 178.9" style="enable-background:new 0 0 1226.5 178.9;" xml:space="preserve">
<style type="text/css">
	.st0{fill:none;stroke:#000000;stroke-width:2;stroke-miterlimit:10;}
	.st1{fill:#FFFFFF;}
	.st2{fill:none;stroke:#000000;stroke-width:3;stroke-miterlimit:10;}
	.st3{fill:#FFFFFF;stroke:#FFFFFF;stroke-miterlimit:10;}
	.st4{stroke:#000000;stroke-miterlimit:10;}
	.st5{fill:#FFFF00;}
	.st6{fill:#00FFFF;}
	.st7{fill:#8C6239;}
	.st8{fill:#754C24;}
	.st9{fill:#FFFFFF;stroke:#000000;stroke-width:2;stroke-miterlimit:10;}
</style>
<g>
	<g>
		<g>
			<polygon class="st0" points="66.4,172 1160.3,167.6 1160.3,12.7 66.4,11.4 			"/>
			<rect x="1160.3" y="2.5" class="st0" width="64.2" height="165.1"/>
		</g>
		<rect x="578.8" y="4.5" class="st0" width="69.5" height="171.7"/>
		<path class="st0" d="M1160.3,91.7"/>
		<path class="st0" d="M66.4,91.7"/>
		<path class="st0" d="M168.9,128.6"/>
		<polyline class="st0" points="2.2,111.3 1159,111.3 1224.5,111.3 		"/>
		<polygon class="st1" points="647.2,171.3 579.9,171.5 579.9,167.5 647.2,167.3 		"/>
		<rect x="579.9" y="10.2" class="st1" width="67.2" height="4.6"/>
		<rect x="579.9" y="109.8" class="st1" width="67.4" height="2.7"/>
		<polyline class="st0" points="66.4,68.9 578.8,68.9 1160.3,68.9 1160.3,61.3 1192.4,61.2 1192.4,53.1 1160.3,53 1160.3,45.1 
			1192.4,45 1192.4,36.9 1160.3,37.1 1160.3,28.8 1192.4,28.8 1224.5,28.8 1224.5,36.9 1192.4,36.9 1192.4,45 1224.5,45 
			1224.5,53.1 1192.4,53.1 1192.4,61.2 1224.5,61.2 1224.5,68.9 1192.4,68.9 1160.3,68.9 		"/>
		<rect x="2.2" y="6.9" class="st0" width="64.2" height="165.1"/>
	</g>
	<polyline class="st0" points="66.4,53.1 34.3,53.1 34.3,61.2 66.4,61.2 	"/>
	<polyline class="st0" points="66.4,36.9 34.3,36.9 34.3,45 66.4,45 	"/>
	<polyline class="st0" points="2.2,28.8 34.3,28.8 66.4,28.8 	"/>
	<polyline class="st0" points="2.2,45 34.3,44.9 34.3,36.8 2.2,36.9 	"/>
	<polyline class="st0" points="2.2,61.2 34.3,61.1 34.3,53 2.2,52.9 	"/>
	<line class="st0" x1="66.4" y1="68.9" x2="2.2" y2="68.9"/>
	<line class="st0" x1="34.3" y1="28.8" x2="34.3" y2="68.9"/>
	<path class="st0" d="M1192.4,28.8v40.1V28.8z"/>
	<polyline class="st0" points="648.2,136.6 613.5,136.6 613.5,144.7 648.2,144.7 	"/>
	<polyline class="st0" points="648.2,120.5 613.5,120.5 613.5,128.6 648.2,128.6 	"/>
	<polyline class="st0" points="578.8,112.5 613.5,112.5 648.2,112.5 	"/>
	<polyline class="st0" points="578.8,128.7 613.5,128.6 613.5,120.5 578.8,120.7 	"/>
	<polyline class="st0" points="578.8,144.9 613.5,144.7 613.5,136.6 578.8,136.6 	"/>
	<polyline class="st0" points="613.5,144.7 613.5,152.5 578.8,152.5 648.2,152.5 	"/>
	<line class="st0" x1="613.5" y1="112.5" x2="613.5" y2="152.5"/>
</g>
<path class="st2" d="M906,167.6v-57.2V167.6z"/>
<path class="st2" d="M906,67.9V11.4V67.9z"/>
<rect x="649.9" y="109.5" class="st3" width="254.6" height="7"/>
<rect x="910" y="108" class="st3" width="248.4" height="7"/>
<rect x="649.3" y="66" class="st1" width="256.2" height="7"/>
<rect x="906.7" y="65.8" class="st1" width="252.2" height="7"/>
<rect x="955" y="65" class="st4" width="29" height="8"/>
<rect x="1021" y="65" class="st4" width="29" height="8"/>
<rect x="1086" y="66" class="st4" width="29" height="8"/>
<rect x="955" y="109" class="st4" width="29" height="8"/>
<rect x="1023" y="109" class="st4" width="29" height="8"/>
<rect x="1086" y="109" class="st4" width="29" height="8"/>
<rect x="826" y="109" class="st4" width="29" height="8"/>
<rect x="826" y="66" class="st4" width="29" height="8"/>
<rect x="758" y="109" class="st4" width="29" height="8"/>
<rect x="758" y="65" class="st4" width="29" height="8"/>
<rect x="690" y="109" class="st4" width="29" height="8"/>
<rect x="690" y="65" class="st4" width="29" height="8"/>
<rect x="892" y="66" class="st4" width="29" height="8"/>
<rect x="892" y="109" class="st4" width="29" height="8"/>
<g>
	<g>
		<path class="st1" d="M908.3,86.9c7.7,0,7.7-12,0-12S900.6,86.9,908.3,86.9L908.3,86.9z"/>
	</g>
</g>
<g>
	<g>
		<path class="st5" d="M1030.6,82.3c5.8,0,5.8-9.1,0-9.1C1024.8,73.3,1024.8,82.3,1030.6,82.3L1030.6,82.3z"/>
	</g>
</g>
<g>
	<g>
		<path class="st5" d="M766.5,82.5c6,0,6-9.4,0-9.4S760.5,82.5,766.5,82.5L766.5,82.5z"/>
	</g>
</g>
<g>
	<g>
		<path class="st6" d="M772.5,82.1c6,0,6-9.4,0-9.4S766.4,82.1,772.5,82.1L772.5,82.1z"/>
	</g>
</g>
<g>
	<g>
		<path class="st6" d="M1035.7,82c5.8,0,5.8-9.1,0-9.1C1029.8,73,1029.8,82,1035.7,82L1035.7,82z"/>
	</g>
</g>
<g>
	<g>
		<path class="st6" d="M1169.4,119.6c5.5,0,5.5-8.6,0-8.6C1163.9,111.1,1163.9,119.6,1169.4,119.6L1169.4,119.6z"/>
	</g>
</g>
<g>
	<g>
		<path class="st7" d="M778.4,82.5c6,0,6-9.4,0-9.4S772.4,82.5,778.4,82.5L778.4,82.5z"/>
	</g>
</g>
<g>
	<g>
		<path class="st7" d="M1040.3,82.7c5.8,0,5.8-9.1,0-9.1S1034.5,82.7,1040.3,82.7L1040.3,82.7z"/>
	</g>
</g>
<g>
	<g>
		<path class="st5" d="M183.8,77.8c6.1,0,6.1-9.6,0-9.6C177.7,68.3,177.7,77.8,183.8,77.8L183.8,77.8z"/>
	</g>
</g>
<g>
	<g>
		<path class="st6" d="M191.4,78.2c6.1,0,6.1-9.6,0-9.6C185.2,68.6,185.2,78.2,191.4,78.2L191.4,78.2z"/>
	</g>
</g>
<g>
	<g>
		<path class="st8" d="M199,78.5c6.1,0,6.1-9.6,0-9.6S192.8,78.5,199,78.5L199,78.5z"/>
	</g>
</g>
<g>
	<g>
		<path class="st5" d="M429.4,78.5c6,0,6-9.4,0-9.4S423.4,78.5,429.4,78.5L429.4,78.5z"/>
	</g>
</g>
<g>
	<g>
		<path class="st6" d="M437.2,78.5c6,0,6-9.4,0-9.4S431.1,78.5,437.2,78.5L437.2,78.5z"/>
	</g>
</g>
<g>
	<g>
		<path class="st8" d="M444.7,78.5c6,0,6-9.4,0-9.4S438.6,78.5,444.7,78.5L444.7,78.5z"/>
	</g>
</g>
<path class="st9" d="M511.3,11.9v158V11.9z"/>
<rect x="512.3" y="65.2" class="st1" width="65.5" height="7.9"/>
<rect x="512.3" y="107.2" class="st1" width="65.5" height="7.9"/>
<g>
	<g>
		<path class="st6" d="M48.9,120c5.8,0,5.8-9.1,0-9.1S43,120,48.9,120L48.9,120z"/>
	</g>
</g>
<g>
	<g>
		<path class="st6" d="M17,120c6.1,0,6.1-9.6,0-9.6S10.9,120,17,120L17,120z"/>
	</g>
</g>
<path class="st0" d="M34.3,111v61V111z"/>
</svg>
