<?xml version="1.0" encoding="utf-8"?>
<!-- Generator: Adobe Illustrator 24.3.0, SVG Export Plug-In . SVG Version: 6.00 Build 0)  -->
<svg version="1.1" id="Warstwa_1" xmlns="http://www.w3.org/2000/svg" xmlns:xlink="http://www.w3.org/1999/xlink" x="0px" y="0px"
	 viewBox="0 0 523.4 77.3" style="enable-background:new 0 0 523.4 77.3;" xml:space="preserve">
<style type="text/css">
	.st0{fill:none;stroke:#000000;stroke-width:1.2;stroke-miterlimit:10;}
	.st1{fill:#FFFFFF;}
	.st2{fill:#00FFFF;}
	.st3{fill:#FFFF00;}
	.st4{fill:#8C6239;}
	.st5{fill:none;stroke:#000000;stroke-width:0.25;stroke-miterlimit:10;}
	.st6{fill:#FFFFFF;stroke:#FFFFFF;stroke-width:0.5;stroke-miterlimit:10;}
</style>
<g>
	<g>
		<g>
			<polygon class="st0" points="28.7,73.7 494.6,71.8 494.6,5.9 28.7,5.3 			"/>
			<rect x="494.6" y="1.5" class="st0" width="27.3" height="70.3"/>
		</g>
		<rect x="246.9" y="2.4" class="st0" width="29.6" height="73.1"/>
		<path class="st0" d="M494.6,39.5"/>
		<path class="st0" d="M28.7,39.5"/>
		<path class="st0" d="M72.4,55.2"/>
		<line class="st0" x1="1.4" y1="47.9" x2="522" y2="47.9"/>
		<polygon class="st1" points="276,73.4 247.4,73.5 247.4,71.7 276,71.6 		"/>
		<rect x="247.5" y="4.8" class="st1" width="28.3" height="1.6"/>
		<rect x="247.4" y="47.2" class="st1" width="28.6" height="1.2"/>
		<polyline class="st0" points="28.7,29.8 246.9,29.8 494.6,29.8 494.6,26.6 508.3,26.5 508.3,23.1 494.6,23 494.6,19.7 508.3,19.6 
			508.3,16.2 494.6,16.2 494.6,12.7 508.3,12.7 522,12.7 522,16.2 508.3,16.2 508.3,19.6 522,19.6 522,23.1 508.3,23.1 508.3,26.5 
			522,26.5 522,29.8 508.3,29.8 494.6,29.8 		"/>
		<rect x="1.4" y="3.4" class="st0" width="27.3" height="70.3"/>
	</g>
	<polyline class="st0" points="28.7,23.1 15,23.1 15,26.5 28.7,26.5 	"/>
	<polyline class="st0" points="28.7,16.2 15,16.2 15,19.6 28.7,19.6 	"/>
	<polyline class="st0" points="1.4,12.7 15,12.7 28.7,12.7 	"/>
	<polyline class="st0" points="1.4,19.6 15,19.6 15,16.1 1.4,16.2 	"/>
	<polyline class="st0" points="1.4,26.5 15,26.5 15,23 1.4,23 	"/>
	<line class="st0" x1="28.7" y1="29.8" x2="1.4" y2="29.8"/>
	<line class="st0" x1="15" y1="12.7" x2="15" y2="29.8"/>
	<path class="st0" d="M508.3,12.7v17.1V12.7z"/>
	<polyline class="st0" points="276.5,58.7 261.7,58.7 261.7,62.1 276.5,62.1 	"/>
	<polyline class="st0" points="276.5,51.8 261.7,51.8 261.7,55.2 276.5,55.2 	"/>
	<polyline class="st0" points="246.9,48.4 261.7,48.4 276.5,48.4 	"/>
	<polyline class="st0" points="246.9,55.3 261.7,55.2 261.7,51.8 246.9,51.8 	"/>
	<polyline class="st0" points="246.9,62.1 261.7,62.1 261.7,58.7 246.9,58.6 	"/>
	<polyline class="st0" points="261.7,62.1 261.7,65.4 246.9,65.4 276.5,65.4 	"/>
	<line class="st0" x1="261.7" y1="48.4" x2="261.7" y2="65.4"/>
</g>
<g>
	<g>
		<path class="st2" d="M418.5,35.2c3.6,0,3.6-5.5,0-5.5C414.9,29.7,414.9,35.2,418.5,35.2L418.5,35.2z"/>
	</g>
</g>
<g>
	<g>
		<path class="st3" d="M422.7,35.4c3.6,0,3.6-5.5,0-5.5C419.1,29.9,419.1,35.4,422.7,35.4L422.7,35.4z"/>
	</g>
</g>
<g>
	<g>
		<path class="st4" d="M427.7,35.6c3.6,0,3.6-5.5,0-5.5C424.1,30.1,424.1,35.6,427.7,35.6L427.7,35.6z"/>
	</g>
</g>
<g>
	<g>
		<path class="st2" d="M65.3,35.5c3.4,0,3.4-5.3,0-5.3C61.9,30.1,61.9,35.5,65.3,35.5L65.3,35.5z"/>
	</g>
</g>
<g>
	<g>
		<path class="st3" d="M69.3,35.5c3.4,0,3.4-5.3,0-5.3C65.9,30.1,65.9,35.5,69.3,35.5L69.3,35.5z"/>
	</g>
</g>
<g>
	<g>
		<path class="st4" d="M73.5,35.3c3.4,0,3.4-5.3,0-5.3C70.1,29.9,70.1,35.3,73.5,35.3L73.5,35.3z"/>
	</g>
</g>
<g>
	<g>
		<path class="st2" d="M513.8,51.5c1.9,0,1.9-3,0-3C511.8,48.5,511.8,51.5,513.8,51.5L513.8,51.5z"/>
	</g>
</g>
<g>
	<g>
		<path class="st2" d="M503.3,51.3c1.9,0,1.9-3,0-3S501.4,51.3,503.3,51.3L503.3,51.3z"/>
	</g>
</g>
<g>
	<g>
		<path class="st2" d="M22.6,51.3c1.9,0,1.9-3,0-3S20.7,51.3,22.6,51.3L22.6,51.3z"/>
	</g>
</g>
<g>
	<g>
		<path class="st2" d="M9.5,51.5c1.9,0,1.9-3,0-3S7.6,51.5,9.5,51.5L9.5,51.5z"/>
	</g>
</g>
<path class="st0" d="M15,47.8v25.9V47.8z"/>
<path class="st5" d="M508.3,71.8"/>
<path class="st0" d="M508.3,47.9l0,24L508.3,47.9z"/>
<rect x="451.2" y="27.3" class="st6" width="42.6" height="4"/>
<path class="st0" d="M450.2,5.8v24V5.8z"/>
<g>
	<g>
		<path class="st2" d="M200.4,48.2c3.6,0,3.6-5.5,0-5.5S196.8,48.2,200.4,48.2L200.4,48.2z"/>
	</g>
</g>
<g>
	<g>
		<path class="st3" d="M204.5,48.4c3.6,0,3.6-5.5,0-5.5C201,42.9,201,48.4,204.5,48.4L204.5,48.4z"/>
	</g>
</g>
<g>
	<g>
		<path class="st4" d="M209.6,48.6c3.6,0,3.6-5.5,0-5.5C206,43.1,206,48.6,209.6,48.6L209.6,48.6z"/>
	</g>
</g>
</svg>
