<?xml version="1.0" encoding="utf-8"?>
<!-- Generator: Adobe Illustrator 24.3.0, SVG Export Plug-In . SVG Version: 6.00 Build 0)  -->
<svg version="1.1" id="Warstwa_1" xmlns="http://www.w3.org/2000/svg" xmlns:xlink="http://www.w3.org/1999/xlink" x="0px" y="0px"
	 viewBox="0 0 522.4 75.9" style="enable-background:new 0 0 522.4 75.9;" xml:space="preserve">
<style type="text/css">
	.st0{fill:none;stroke:#000000;stroke-miterlimit:10;}
	.st1{fill:#FFFFFF;}
	.st2{fill:#00FFFF;}
	.st3{fill:#FFFF00;}
	.st4{fill:#8C6239;}
	.st5{fill:none;stroke:#000000;stroke-width:0.25;stroke-miterlimit:10;}
	.st6{fill:#FFFFFF;stroke:#000000;stroke-miterlimit:10;}
</style>
<g>
	<g>
		<g>
			<polygon class="st0" points="28.1,73.5 494.1,71.6 494.1,5.7 28.1,5.1 			"/>
			<rect x="494.1" y="1.3" class="st0" width="27.3" height="70.3"/>
		</g>
		<rect x="246.4" y="2.2" class="st0" width="29.6" height="73.1"/>
		<path class="st0" d="M494.1,39.3"/>
		<path class="st0" d="M28.1,39.3"/>
		<path class="st0" d="M71.8,55"/>
		<line class="st0" x1="0.8" y1="47.7" x2="521.4" y2="47.7"/>
		<polygon class="st1" points="275.4,73.3 246.8,73.3 246.8,72 275.4,71.9 		"/>
		<rect x="246.9" y="4.6" class="st1" width="28.6" height="1.4"/>
		<rect x="246.9" y="47" class="st1" width="28.6" height="1.2"/>
		<polyline class="st0" points="28.1,29.6 246.4,29.6 494.1,29.6 494.1,26.4 507.7,26.3 507.7,22.9 494.1,22.8 494.1,19.5 
			507.7,19.4 507.7,16 494.1,16 494.1,12.5 507.7,12.5 521.4,12.5 521.4,16 507.7,16 507.7,19.4 521.4,19.4 521.4,22.9 507.7,22.9 
			507.7,26.3 521.4,26.3 521.4,29.6 507.7,29.6 494.1,29.6 		"/>
		<rect x="0.8" y="3.2" class="st0" width="27.3" height="70.3"/>
	</g>
	<polyline class="st0" points="28.1,22.9 14.5,22.9 14.5,26.3 28.1,26.3 	"/>
	<polyline class="st0" points="28.1,16 14.5,16 14.5,19.4 28.1,19.4 	"/>
	<polyline class="st0" points="0.8,12.5 14.5,12.5 28.1,12.5 	"/>
	<polyline class="st0" points="0.8,19.4 14.5,19.4 14.5,15.9 0.8,16 	"/>
	<polyline class="st0" points="0.8,26.3 14.5,26.3 14.5,22.8 0.8,22.8 	"/>
	<line class="st0" x1="28.1" y1="29.6" x2="0.8" y2="29.6"/>
	<line class="st0" x1="14.5" y1="12.5" x2="14.5" y2="29.6"/>
	<path class="st0" d="M507.7,12.5v17.1V12.5z"/>
	<polyline class="st0" points="276,58.5 261.2,58.5 261.2,61.9 276,61.9 	"/>
	<polyline class="st0" points="276,51.6 261.2,51.6 261.2,55 276,55 	"/>
	<polyline class="st0" points="246.4,48.2 261.2,48.2 276,48.2 	"/>
	<polyline class="st0" points="246.4,55.1 261.2,55 261.2,51.6 246.4,51.7 	"/>
	<polyline class="st0" points="246.4,62 261.2,61.9 261.2,58.5 246.4,58.4 	"/>
	<polyline class="st0" points="261.2,61.9 261.2,65.2 246.4,65.2 276,65.2 	"/>
	<line class="st0" x1="261.2" y1="48.2" x2="261.2" y2="65.2"/>
</g>
<g>
	<g>
		<path class="st2" d="M417.7,34.5c3.2,0,3.2-5,0-5C414.5,29.5,414.5,34.5,417.7,34.5L417.7,34.5z"/>
	</g>
</g>
<g>
	<g>
		<path class="st3" d="M421.4,34.7c3.2,0,3.2-5,0-5C418.2,29.7,418.2,34.7,421.4,34.7L421.4,34.7z"/>
	</g>
</g>
<g>
	<g>
		<path class="st4" d="M426,34.9c3.2,0,3.2-5,0-5C422.8,29.9,422.8,34.9,426,34.9L426,34.9z"/>
	</g>
</g>
<g>
	<g>
		<path class="st2" d="M64.6,35c3.3,0,3.3-5.1,0-5.1C61.3,29.9,61.3,35,64.6,35L64.6,35z"/>
	</g>
</g>
<g>
	<g>
		<path class="st3" d="M68.5,35c3.3,0,3.3-5.1,0-5.1C65.2,29.9,65.2,35,68.5,35L68.5,35z"/>
	</g>
</g>
<g>
	<g>
		<path class="st4" d="M72.5,34.8c3.3,0,3.3-5.1,0-5.1C69.2,29.7,69.2,34.8,72.5,34.8L72.5,34.8z"/>
	</g>
</g>
<g>
	<g>
		<path class="st2" d="M513.2,51.3c1.9,0,1.9-3,0-3C511.3,48.3,511.3,51.3,513.2,51.3L513.2,51.3z"/>
	</g>
</g>
<g>
	<g>
		<path class="st2" d="M502.8,51.1c1.9,0,1.9-3,0-3C500.8,48.1,500.8,51.1,502.8,51.1L502.8,51.1z"/>
	</g>
</g>
<g>
	<g>
		<path class="st2" d="M22.1,51.1c1.9,0,1.9-3,0-3S20.1,51.1,22.1,51.1L22.1,51.1z"/>
	</g>
</g>
<g>
	<g>
		<path class="st2" d="M9,51.3c1.9,0,1.9-3,0-3S7,51.3,9,51.3L9,51.3z"/>
	</g>
</g>
<path class="st0" d="M14.5,47.6v25.9V47.6z"/>
<path class="st5" d="M507.7,71.7"/>
<path class="st6" d="M480.2-13.2"/>
</svg>
