<?xml version="1.0" encoding="utf-8"?>
<!-- Generator: Adobe Illustrator 24.3.0, SVG Export Plug-In . SVG Version: 6.00 Build 0)  -->
<svg version="1.1" id="Warstwa_1" xmlns="http://www.w3.org/2000/svg" xmlns:xlink="http://www.w3.org/1999/xlink" x="0px" y="0px"
	 viewBox="0 0 524 77.2" style="enable-background:new 0 0 524 77.2;" xml:space="preserve">
<style type="text/css">
	.st0{fill:none;stroke:#000000;stroke-width:1.2;stroke-miterlimit:10;}
	.st1{fill:#FFFFFF;}
	.st2{fill:#00FFFF;}
	.st3{fill:#FFFF00;}
	.st4{fill:#8C6239;}
	.st5{fill:none;stroke:#000000;stroke-width:0.25;stroke-miterlimit:10;}
	.st6{fill:#FFFFFF;stroke:#000000;stroke-width:1.2;stroke-miterlimit:10;}
	.st7{fill:#FFFFFF;stroke:#FFFFFF;stroke-miterlimit:10;}
	.st8{fill:#00FFFF;stroke:#000000;stroke-width:0.75;stroke-miterlimit:10;}
</style>
<g>
	<g>
		<g>
			<polygon class="st0" points="29,73.7 494.9,71.8 494.9,5.9 29,5.3 			"/>
			<rect x="494.9" y="1.5" class="st0" width="27.3" height="70.3"/>
		</g>
		<rect x="247.2" y="2.4" class="st0" width="29.6" height="73.1"/>
		<path class="st0" d="M494.9,39.5"/>
		<path class="st0" d="M29,39.5"/>
		<path class="st0" d="M72.7,55.2"/>
		<line class="st0" x1="1.7" y1="47.9" x2="522.3" y2="47.9"/>
		<polygon class="st1" points="276.3,73.4 247.7,73.5 247.7,71.8 276.3,71.8 		"/>
		<rect x="247.9" y="4.8" class="st1" width="28.3" height="1.4"/>
		<rect x="247.7" y="47.2" class="st1" width="28.6" height="1.2"/>
		<polyline class="st0" points="29,29.8 247.2,29.8 494.9,29.8 494.9,26.6 508.6,26.5 508.6,23.1 494.9,23 494.9,19.7 508.6,19.6 
			508.6,16.2 494.9,16.2 494.9,12.7 508.6,12.7 522.3,12.7 522.3,16.2 508.6,16.2 508.6,19.6 522.3,19.6 522.3,23.1 508.6,23.1 
			508.6,26.5 522.3,26.5 522.3,29.8 508.6,29.8 494.9,29.8 		"/>
		<rect x="1.7" y="3.4" class="st0" width="27.3" height="70.3"/>
	</g>
	<polyline class="st0" points="29,23.1 15.3,23.1 15.3,26.5 29,26.5 	"/>
	<polyline class="st0" points="29,16.2 15.3,16.2 15.3,19.6 29,19.6 	"/>
	<polyline class="st0" points="1.7,12.7 15.3,12.7 29,12.7 	"/>
	<polyline class="st0" points="1.7,19.6 15.3,19.6 15.3,16.1 1.7,16.2 	"/>
	<polyline class="st0" points="1.7,26.5 15.3,26.5 15.3,23 1.7,23 	"/>
	<line class="st0" x1="29" y1="29.8" x2="1.7" y2="29.8"/>
	<line class="st0" x1="15.3" y1="12.7" x2="15.3" y2="29.8"/>
	<path class="st0" d="M508.6,12.7v17.1V12.7z"/>
	<polyline class="st0" points="276.8,58.7 262,58.7 262,62.1 276.8,62.1 	"/>
	<polyline class="st0" points="276.8,51.8 262,51.8 262,55.2 276.8,55.2 	"/>
	<polyline class="st0" points="247.2,48.4 262,48.4 276.8,48.4 	"/>
	<polyline class="st0" points="247.2,55.3 262,55.2 262,51.8 247.2,51.8 	"/>
	<polyline class="st0" points="247.2,62.1 262,62.1 262,58.7 247.2,58.6 	"/>
	<polyline class="st0" points="262,62.1 262,65.4 247.2,65.4 276.8,65.4 	"/>
	<line class="st0" x1="262" y1="48.4" x2="262" y2="65.4"/>
</g>
<g>
	<g>
		<path class="st2" d="M461.4,34.4c3,0,3-4.7,0-4.7C458.4,29.7,458.4,34.4,461.4,34.4L461.4,34.4z"/>
	</g>
</g>
<g>
	<g>
		<path class="st3" d="M464.9,34.6c3,0,3-4.7,0-4.7C461.9,29.9,461.9,34.6,464.9,34.6L464.9,34.6z"/>
	</g>
</g>
<g>
	<g>
		<path class="st4" d="M469.2,34.8c3,0,3-4.7,0-4.7C466.2,30.1,466.2,34.8,469.2,34.8L469.2,34.8z"/>
	</g>
</g>
<g>
	<g>
		<path class="st2" d="M119.4,35.1c3.2,0,3.2-5,0-5C116.2,30.1,116.2,35.1,119.4,35.1L119.4,35.1z"/>
	</g>
</g>
<g>
	<g>
		<path class="st3" d="M124,35.1c3.2,0,3.2-5,0-5C120.8,30.1,120.8,35.1,124,35.1L124,35.1z"/>
	</g>
</g>
<g>
	<g>
		<path class="st4" d="M128.8,34.9c3.2,0,3.2-5,0-5C125.6,29.9,125.6,34.9,128.8,34.9L128.8,34.9z"/>
	</g>
</g>
<g>
	<g>
		<path class="st2" d="M514.1,51.5c1.9,0,1.9-3,0-3C512.1,48.5,512.1,51.5,514.1,51.5L514.1,51.5z"/>
	</g>
</g>
<g>
	<g>
		<path class="st2" d="M503.6,51.3c1.9,0,1.9-3,0-3C501.7,48.3,501.7,51.3,503.6,51.3L503.6,51.3z"/>
	</g>
</g>
<g>
	<g>
		<path class="st2" d="M22.9,51.3c1.9,0,1.9-3,0-3S21,51.3,22.9,51.3L22.9,51.3z"/>
	</g>
</g>
<g>
	<g>
		<path class="st2" d="M9.8,51.5c1.9,0,1.9-3,0-3S7.9,51.5,9.8,51.5L9.8,51.5z"/>
	</g>
</g>
<path class="st0" d="M15.3,47.8v25.9V47.8z"/>
<path class="st5" d="M508.6,71.8"/>
<path class="st6" d="M308.4,5.6v24.2V5.6z"/>
<polyline class="st0" points="213.5,47.9 213.5,73 181.6,73 181.6,47.9 "/>
<rect x="182.9" y="47.5" class="st7" width="29.4" height="2"/>
<rect x="277.9" y="29.5" class="st7" width="29.4" height="1"/>
<path class="st8" d="M508.6,47.9v24V47.9z"/>
<g>
	<g>
		<path class="st2" d="M356.1,34.4c2.9,0,2.9-4.5,0-4.5C353.2,29.9,353.2,34.4,356.1,34.4L356.1,34.4z"/>
	</g>
</g>
<g>
	<g>
		<path class="st3" d="M359.5,34.6c2.9,0,2.9-4.5,0-4.5C356.6,30,356.6,34.6,359.5,34.6L359.5,34.6z"/>
	</g>
</g>
<g>
	<g>
		<path class="st4" d="M363.6,34.8c2.9,0,2.9-4.5,0-4.5C360.7,30.2,360.7,34.8,363.6,34.8L363.6,34.8z"/>
	</g>
</g>
</svg>
