<?xml version="1.0" encoding="utf-8"?>
<!-- Generator: Adobe Illustrator 24.3.0, SVG Export Plug-In . SVG Version: 6.00 Build 0)  -->
<svg version="1.1" id="Warstwa_1" xmlns="http://www.w3.org/2000/svg" xmlns:xlink="http://www.w3.org/1999/xlink" x="0px" y="0px"
	 viewBox="0 0 523.7 76.8" style="enable-background:new 0 0 523.7 76.8;" xml:space="preserve">
<style type="text/css">
	.st0{fill:none;stroke:#000000;stroke-width:1.2;stroke-miterlimit:10;}
	.st1{fill:#FFFFFF;}
	.st2{fill:none;stroke:#000000;stroke-miterlimit:10;}
	.st3{stroke:#000000;stroke-miterlimit:10;}
	.st4{fill:#FFFF00;}
	.st5{fill:#00FFFF;}
	.st6{fill:#754C24;}
</style>
<g>
	<g>
		<g>
			<polygon class="st0" points="28.4,74 494.3,72.1 494.3,6.2 28.4,5.6 			"/>
			<rect x="494.3" y="1.8" class="st0" width="27.3" height="70.3"/>
		</g>
		<rect x="246.6" y="2.7" class="st0" width="29.6" height="73.1"/>
		<path class="st0" d="M494.3,39.8"/>
		<path class="st0" d="M28.4,39.8"/>
		<path class="st0" d="M72.1,55.5"/>
		<line class="st0" x1="1.1" y1="48.2" x2="521.7" y2="48.2"/>
		<polygon class="st1" points="275.7,73.7 247.1,73.8 247.1,72.1 275.7,72.1 		"/>
		<rect x="247.1" y="5.1" class="st1" width="28.6" height="1.8"/>
		<rect x="247.1" y="47.5" class="st1" width="28.6" height="1.2"/>
		<polyline class="st0" points="28.4,30.1 246.6,30.1 494.3,30.1 494.3,26.9 508,26.8 508,23.4 494.3,23.3 494.3,20 508,19.9 
			508,16.5 494.3,16.5 494.3,13 508,13 521.7,13 521.7,16.5 508,16.5 508,19.9 521.7,19.9 521.7,23.4 508,23.4 508,26.8 521.7,26.8 
			521.7,30.1 508,30.1 494.3,30.1 		"/>
		<rect x="1.1" y="3.7" class="st0" width="27.3" height="70.3"/>
	</g>
	<polyline class="st0" points="28.4,23.4 14.8,23.4 14.8,26.8 28.4,26.8 	"/>
	<polyline class="st0" points="28.4,16.5 14.8,16.5 14.8,19.9 28.4,19.9 	"/>
	<polyline class="st0" points="1.1,13 14.8,13 28.4,13 	"/>
	<polyline class="st0" points="1.1,19.9 14.8,19.9 14.8,16.4 1.1,16.5 	"/>
	<polyline class="st0" points="1.1,26.8 14.8,26.8 14.8,23.3 1.1,23.3 	"/>
	<line class="st0" x1="28.4" y1="30.1" x2="1.1" y2="30.1"/>
	<line class="st0" x1="14.8" y1="13" x2="14.8" y2="30.1"/>
	<path class="st0" d="M508,13v17.1V13z"/>
	<polyline class="st0" points="276.2,59 261.4,59 261.4,62.4 276.2,62.4 	"/>
	<polyline class="st0" points="276.2,52.1 261.4,52.1 261.4,55.5 276.2,55.5 	"/>
	<polyline class="st0" points="246.6,48.7 261.4,48.7 276.2,48.7 	"/>
	<polyline class="st0" points="246.6,55.6 261.4,55.5 261.4,52.1 246.6,52.1 	"/>
	<polyline class="st0" points="246.6,62.4 261.4,62.4 261.4,59 246.6,58.9 	"/>
	<polyline class="st0" points="261.4,62.4 261.4,65.7 246.6,65.7 276.2,65.7 	"/>
	<line class="st0" x1="261.4" y1="48.7" x2="261.4" y2="65.7"/>
</g>
<path class="st2" d="M327.2,6v66.8V6z"/>
<path class="st2" d="M202.7,48.7v24.6V48.7z"/>
<line class="st2" x1="161.6" y1="48.1" x2="161.6" y2="73.1"/>
<rect x="162.2" y="46.7" class="st1" width="40" height="3"/>
<rect x="276.7" y="47.2" class="st1" width="50" height="3"/>
<rect x="276.7" y="29.2" class="st1" width="50" height="3"/>
<rect x="293.2" y="47.7" class="st3" width="17.5" height="4.5"/>
<rect x="293.4" y="28.4" class="st3" width="17.5" height="4.5"/>
<g>
	<g>
		<path class="st4" d="M325.3,50.9c1.9,0,1.9-3,0-3C323.3,47.9,323.3,50.9,325.3,50.9L325.3,50.9z"/>
	</g>
</g>
<g>
	<g>
		<path class="st5" d="M325.4,53.6c1.9,0,1.9-3,0-3S323.5,53.6,325.4,53.6L325.4,53.6z"/>
	</g>
</g>
<g>
	<g>
		<path class="st6" d="M325.6,56.3c1.9,0,1.9-3,0-3S323.7,56.3,325.6,56.3L325.6,56.3z"/>
	</g>
</g>
<g>
	<g>
		<path class="st6" d="M278.4,57.3c1.9,0,1.9-3,0-3C276.5,54.3,276.5,57.3,278.4,57.3L278.4,57.3z"/>
	</g>
</g>
<g>
	<g>
		<path class="st5" d="M278.2,54.7c1.9,0,1.9-3,0-3S276.3,54.7,278.2,54.7L278.2,54.7z"/>
	</g>
</g>
<g>
	<g>
		<path class="st4" d="M278.2,52.2c1.9,0,1.9-3,0-3S276.3,52.2,278.2,52.2L278.2,52.2z"/>
	</g>
</g>
<g>
	<g>
		<path class="st4" d="M325.3,11.3c1.9,0,1.9-3,0-3C323.3,8.3,323.3,11.3,325.3,11.3L325.3,11.3z"/>
	</g>
</g>
<g>
	<g>
		<path class="st5" d="M325.4,14c1.9,0,1.9-3,0-3S323.5,14,325.4,14L325.4,14z"/>
	</g>
</g>
<g>
	<g>
		<path class="st6" d="M325.6,16.9c1.9,0,1.9-3,0-3S323.7,16.9,325.6,16.9L325.6,16.9z"/>
	</g>
</g>
<g>
	<g>
		<path class="st6" d="M229.7,33.6c1.9,0,1.9-3,0-3S227.8,33.6,229.7,33.6L229.7,33.6z"/>
	</g>
</g>
<g>
	<g>
		<path class="st5" d="M227.1,33.4c1.9,0,1.9-3,0-3S225.1,33.4,227.1,33.4L227.1,33.4z"/>
	</g>
</g>
<g>
	<g>
		<path class="st4" d="M224.4,33.1c1.9,0,1.9-3,0-3C222.5,30.1,222.5,33.1,224.4,33.1L224.4,33.1z"/>
	</g>
</g>
<g>
	<g>
		<path class="st4" d="M70.8,33.4c1.9,0,1.9-3,0-3S68.8,33.4,70.8,33.4L70.8,33.4z"/>
	</g>
</g>
<g>
	<g>
		<path class="st5" d="M73.8,33.3c1.9,0,1.9-3,0-3S71.9,33.3,73.8,33.3L73.8,33.3z"/>
	</g>
</g>
<g>
	<g>
		<path class="st6" d="M76.5,33.1c1.9,0,1.9-3,0-3S74.5,33.1,76.5,33.1L76.5,33.1z"/>
	</g>
</g>
<path class="st2" d="M508,48.2v24V48.2z"/>
<path class="st2" d="M14.8,48.2V74V48.2z"/>
<g>
	<g>
		<path class="st5" d="M20.2,51.4c1.9,0,1.9-3,0-3S18.2,51.4,20.2,51.4L20.2,51.4z"/>
	</g>
</g>
<g>
	<g>
		<path class="st5" d="M8.2,51.4c1.9,0,1.9-3,0-3C6.3,48.4,6.3,51.4,8.2,51.4L8.2,51.4z"/>
	</g>
</g>
<g>
	<g>
		<path class="st5" d="M498.5,51.3c1.9,0,1.9-3,0-3S496.6,51.3,498.5,51.3L498.5,51.3z"/>
	</g>
</g>
<g>
	<g>
		<path class="st5" d="M513.3,51.4c1.9,0,1.9-3,0-3C511.3,48.4,511.3,51.4,513.3,51.4L513.3,51.4z"/>
	</g>
</g>
</svg>
